<?xml version="1.0" standalone="no"?>
<!DOCTYPE svg PUBLIC "-//W3C//DTD SVG 20010904//EN"
 "http://www.w3.org/TR/2001/REC-SVG-20010904/DTD/svg10.dtd">
<svg version="1.0" xmlns="http://www.w3.org/2000/svg"
 width="500.000000pt" height="500.000000pt" viewBox="0 0 500.000000 500.000000"
 preserveAspectRatio="xMidYMid meet">
<metadata>
Created by potrace 1.14, written by Peter Selinger 2001-2017
</metadata>
<g transform="translate(0.000000,500.000000) scale(0.100000,-0.100000)"
fill="#000000" stroke="none">
<path d="M3087 4963 c-1 -1 -47 -4 -102 -8 -118 -8 -150 -11 -230 -20 -118
-13 -129 -14 -159 -20 -17 -2 -44 -7 -61 -10 -16 -3 -43 -7 -60 -10 -16 -3
-41 -7 -55 -10 -14 -3 -36 -7 -50 -10 -14 -2 -52 -12 -85 -21 -80 -21 -96 -25
-120 -28 -11 -2 -21 -5 -22 -6 -2 -1 -7 -4 -13 -5 -5 -1 -12 -4 -15 -5 -3 -1
-9 -4 -15 -5 -5 -1 -11 -3 -12 -4 -2 -2 -12 -4 -24 -6 -12 -3 -41 -13 -67 -24
-25 -11 -48 -17 -51 -14 -3 4 -6 2 -6 -4 0 -5 -6 -10 -12 -10 -7 0 -35 -11
-63 -23 -27 -13 -52 -24 -55 -24 -3 -1 -11 -5 -17 -9 -7 -5 -13 -5 -13 0 0 4
-4 3 -8 -4 -4 -6 -14 -13 -22 -15 -8 -2 -21 -9 -28 -16 -8 -7 -18 -10 -23 -7
-5 4 -9 2 -9 -4 0 -6 -11 -13 -25 -17 -13 -3 -29 -12 -36 -20 -6 -8 -15 -11
-20 -8 -5 3 -12 -2 -15 -10 -3 -9 -10 -13 -15 -10 -5 3 -9 0 -9 -5 0 -6 -7
-11 -15 -11 -8 0 -15 -4 -15 -10 0 -5 -3 -9 -8 -7 -4 1 -18 -8 -31 -20 -13
-12 -27 -20 -31 -18 -3 2 -13 -5 -20 -16 -8 -10 -18 -19 -22 -19 -8 0 -29 -17
-77 -62 -15 -16 -31 -28 -34 -28 -10 0 -137 -130 -137 -141 0 -6 -4 -7 -10 -4
-5 3 -10 1 -10 -5 0 -6 -10 -21 -23 -34 -12 -13 -29 -33 -37 -46 -8 -12 -24
-31 -34 -41 -11 -11 -16 -19 -10 -19 5 0 5 -3 -1 -8 -14 -10 -107 -152 -99
-152 3 0 -2 -7 -10 -16 -9 -8 -16 -22 -16 -30 0 -8 -5 -14 -10 -14 -6 0 -9 -3
-9 -7 3 -13 -25 -73 -33 -73 -4 0 -5 -7 -2 -15 4 -8 1 -15 -5 -15 -6 0 -10 -3
-9 -7 1 -5 -3 -18 -10 -30 -7 -13 -9 -23 -5 -23 4 0 2 -5 -5 -12 -7 -7 -12
-20 -12 -30 0 -10 -5 -18 -10 -18 -6 0 -9 -3 -8 -7 3 -14 -14 -78 -24 -90 -6
-7 -7 -13 -3 -13 4 0 2 -7 -5 -15 -7 -9 -10 -18 -7 -22 4 -3 2 -12 -4 -20 -6
-7 -9 -13 -5 -13 3 0 1 -11 -4 -26 -10 -25 -22 -79 -23 -101 0 -7 -3 -13 -7
-13 -4 0 -6 -10 -5 -22 1 -13 -2 -36 -6 -53 -7 -28 -18 -97 -24 -155 -2 -14
-6 -56 -10 -95 -17 -153 -9 -1033 9 -1064 2 -3 7 -32 10 -65 16 -139 74 -360
133 -510 231 -587 691 -974 1393 -1171 52 -15 104 -29 115 -31 11 -2 40 -8 65
-14 25 -5 72 -14 105 -20 33 -5 71 -12 85 -15 38 -8 177 -24 255 -30 39 -4 84
-8 100 -11 17 -3 282 -8 590 -11 536 -5 561 -5 583 13 l23 19 0 567 c0 312 -3
573 -8 580 -6 10 -138 13 -633 13 -564 0 -738 4 -781 19 -8 3 -32 7 -54 10
-48 6 -116 19 -135 26 -3 1 -9 3 -15 4 -5 1 -30 8 -55 16 -25 7 -48 14 -52 16
-5 1 -11 3 -15 4 -5 1 -11 2 -15 1 -5 0 -8 4 -8 10 0 5 -4 8 -10 4 -9 -6 -15
-3 -77 29 -18 9 -33 14 -33 9 0 -4 -4 -2 -8 5 -5 7 -19 15 -32 17 -13 2 -27
10 -32 17 -4 7 -8 9 -8 5 0 -5 -7 -1 -16 7 -8 9 -22 16 -30 16 -8 0 -14 5 -14
11 0 5 -4 8 -8 5 -5 -3 -14 4 -22 14 -8 10 -17 17 -21 15 -3 -3 -19 7 -33 20
-15 14 -29 25 -33 25 -3 0 -17 13 -33 30 -15 16 -29 28 -31 26 -2 -2 -16 10
-31 25 -15 16 -24 29 -20 29 3 0 -4 7 -16 16 -12 8 -20 20 -17 25 4 5 -1 9
-10 9 -9 0 -14 4 -11 8 3 5 -6 16 -19 26 -14 10 -22 22 -19 27 3 5 -2 12 -10
15 -9 3 -16 11 -16 16 0 5 -9 22 -20 38 -11 15 -17 30 -13 33 3 4 -2 9 -11 13
-9 3 -16 15 -16 25 0 10 -5 19 -11 19 -5 0 -7 5 -4 10 3 6 2 10 -4 10 -6 0
-14 12 -17 28 -4 15 -9 32 -13 37 -3 6 -6 15 -7 20 -2 6 -14 43 -28 82 -13 40
-22 73 -19 73 3 0 0 6 -6 14 -6 8 -11 18 -9 22 1 5 -1 23 -5 39 -39 163 -38
291 3 476 82 371 268 637 571 819 161 98 376 167 629 205 88 13 316 21 457 16
l33 -1 -1 -282 c0 -156 0 -383 0 -505 l1 -223 435 0 435 0 1 338 c1 495 0
1398 -1 1622 -1 145 -5 200 -15 213 -7 10 -16 18 -19 18 -3 -1 -9 0 -13 0 -12
2 -1014 4 -1016 2z"/>
<path d="M2318 2653 c-15 -4 -18 -17 -19 -71 -4 -141 -7 -268 -8 -292 l-1 -25
-180 0 c-99 0 -180 0 -181 0 0 0 -3 -93 -6 -207 -5 -194 -4 -207 13 -215 11
-5 94 -8 187 -7 92 0 167 -2 168 -5 1 -3 2 -87 4 -186 1 -99 3 -186 4 -193 1
-10 36 -12 154 -10 l152 3 3 196 2 196 191 0 c124 0 193 4 197 11 7 10 8 192
2 339 -2 41 -8 74 -14 76 -6 2 -93 3 -193 2 l-183 -1 -1 136 c-3 262 -2 244
-24 252 -23 7 -241 8 -267 1z"/>
<path d="M3458 2653 c-10 -2 -18 -8 -19 -11 -2 -21 -6 -143 -7 -252 l-2 -126
-180 1 -179 0 -6 -26 c-9 -39 -10 -387 -2 -396 4 -3 88 -6 187 -6 l180 0 1
-181 c1 -99 2 -188 3 -196 1 -13 25 -15 156 -15 l155 0 3 196 2 196 178 1 c97
0 185 1 196 1 18 1 18 11 13 214 -3 116 -6 212 -6 212 -1 0 -86 0 -191 0
l-190 0 -2 135 c-2 204 -4 240 -12 248 -9 8 -252 13 -278 5z"/>
</g>
</svg>
